<svg width="20" height="20" viewBox="0 0 20 20" fill="none" xmlns="http://www.w3.org/2000/svg">
<g clip-path="url(#clip0_890_1597)">
<path d="M5.83984 4.99L5.83984 1.67C5.83984 1.21161 6.21145 0.84 6.66984 0.84C7.12824 0.84 7.49984 1.21161 7.49984 1.67L7.49984 4.99C7.49984 5.44839 7.12824 5.82 6.66984 5.82C6.21145 5.82 5.83984 5.44839 5.83984 4.99Z" fill="#636AE8"/>
<path d="M12.5 4.99L12.5 1.67C12.5 1.21161 12.8716 0.84 13.33 0.84C13.7884 0.84 14.16 1.21161 14.16 1.67L14.16 4.99C14.16 5.44839 13.7884 5.82 13.33 5.82C12.8716 5.82 12.5 5.44839 12.5 4.99Z" fill="#636AE8"/>
<path d="M16.6392 5.02C16.6392 4.56161 16.2676 4.19 15.8092 4.19L4.18922 4.19C3.73083 4.19 3.35922 4.56161 3.35922 5.02L3.35922 16.64C3.35922 17.0984 3.73083 17.47 4.18922 17.47L15.8092 17.47C16.2676 17.47 16.6392 17.0984 16.6392 16.64L16.6392 5.02ZM18.2992 16.64C18.2992 18.0152 17.1844 19.13 15.8092 19.13L4.18922 19.13C2.81403 19.13 1.69922 18.0152 1.69922 16.64L1.69922 5.02C1.69922 3.64482 2.81403 2.53 4.18922 2.53L15.8092 2.53C17.1844 2.53 18.2992 3.64482 18.2992 5.02L18.2992 16.64Z" fill="#636AE8"/>
<path d="M17.4692 7.5C17.9276 7.5 18.2992 7.87161 18.2992 8.33C18.2992 8.78841 17.9276 9.16 17.4692 9.16L2.52922 9.16C2.07083 9.16 1.69922 8.78841 1.69922 8.33C1.69922 7.87161 2.07083 7.5 2.52922 7.5L17.4692 7.5Z" fill="#636AE8"/>
</g>
<defs>
<clipPath id="clip0_890_1597">
<rect width="20" height="20" fill="white"/>
</clipPath>
</defs>
</svg>
