<svg width="29" height="25" viewBox="0 0 29 25" fill="none" xmlns="http://www.w3.org/2000/svg">
<path d="M10.5493 9.7478L8.99949 11.3003H13.2964C13.6145 11.3003 13.9197 11.4267 14.1446 11.6517C14.3696 11.8767 14.496 12.1819 14.496 12.5C14.496 12.8182 14.3696 13.1234 14.1446 13.3484C13.9197 13.5734 13.6145 13.6998 13.2964 13.6998H8.99949L10.5493 15.2499C10.6639 15.3606 10.7553 15.493 10.8182 15.6393C10.881 15.7857 10.9141 15.9431 10.9155 16.1024C10.9169 16.2617 10.8866 16.4197 10.8262 16.5672C10.7659 16.7146 10.6768 16.8486 10.5642 16.9612C10.4516 17.0739 10.3176 17.163 10.1702 17.2233C10.0228 17.2836 9.86484 17.314 9.70556 17.3126C9.54628 17.3112 9.38887 17.2781 9.24252 17.2152C9.09616 17.1523 8.9638 17.0609 8.85314 16.9464L5.25439 13.3471C5.0295 13.1221 4.90317 12.817 4.90317 12.4988C4.90317 12.1807 5.0295 11.8756 5.25439 11.6506L8.85314 8.05134C8.9638 7.93675 9.09617 7.84535 9.24252 7.78247C9.38887 7.71959 9.54628 7.68649 9.70556 7.68511C9.86484 7.68373 10.0228 7.71408 10.1702 7.77441C10.3177 7.83473 10.4516 7.92382 10.5642 8.03647C10.6769 8.14912 10.7659 8.28307 10.8262 8.43052C10.8866 8.57796 10.9169 8.73595 10.9155 8.89525C10.9141 9.05455 10.881 9.21199 10.8182 9.35836C10.7553 9.50474 10.6639 9.63712 10.5493 9.7478Z" fill="#5D6065"/>
<path d="M28.8955 19.701C28.8955 20.9737 28.3899 22.1944 27.4901 23.0944C26.5902 23.9944 25.3697 24.5 24.0971 24.5L4.9038 24.5C3.63121 24.5 2.41073 23.9944 1.51087 23.0944C0.611007 22.1944 0.105469 20.9737 0.105469 19.701L0.10547 5.29904C0.10547 4.02625 0.611009 2.8056 1.51087 1.90561C2.41073 1.00561 3.63121 0.5 4.9038 0.5L24.0971 0.500002C25.3697 0.500002 26.5902 1.00562 27.4901 1.90561C28.3899 2.8056 28.8955 4.02626 28.8955 5.29904V19.701ZM24.0971 22.1005C24.7334 22.1005 25.3437 21.8477 25.7936 21.3977C26.2435 20.9477 26.4963 20.3374 26.4963 19.701V5.29904C26.4963 4.66265 26.2435 4.05232 25.7936 3.60233C25.3437 3.15233 24.7334 2.89952 24.0971 2.89952L19.294 2.89952L19.294 22.0981H24.0971V22.1005ZM16.8948 22.1005L16.8948 2.89952L4.9038 2.89952C4.2675 2.89952 3.65727 3.15233 3.20734 3.60232C2.75741 4.05232 2.50464 4.66265 2.50464 5.29904L2.50464 19.6986C2.50464 20.335 2.7574 20.9453 3.20734 21.3953C3.65727 21.8453 4.2675 22.0981 4.9038 22.0981L16.8948 22.0981V22.1005Z" fill="#5D6065"/>
</svg>
