<svg width="20" height="20" viewBox="0 0 20 20" fill="none" xmlns="http://www.w3.org/2000/svg">
<path d="M11.6699 3.33001C11.6699 2.41322 12.4131 1.67001 13.3299 1.67001C14.2467 1.67001 14.9899 2.41322 14.9899 3.33001C14.9899 4.24681 14.2467 4.99001 13.3299 4.99001C12.4131 4.99001 11.6699 4.24681 11.6699 3.33001Z" fill="#636AE8"/>
<path d="M15.7817 9.18585C16.01 9.1753 16.2346 9.25996 16.4001 9.42173C16.5656 9.58358 16.6552 9.80594 16.6498 10.0344L16.6417 10.1325L15.8117 15.9425C15.7468 16.3963 15.326 16.7117 14.8722 16.6469C14.4186 16.5821 14.1031 16.1612 14.1679 15.7075L14.8374 11.0193L10.976 11.6636C10.5239 11.7388 10.0965 11.4332 10.0211 10.9812C9.94594 10.5291 10.2515 10.1017 10.7036 10.0264L15.6836 9.19639L15.7817 9.18585Z" fill="#636AE8"/>
<path d="M6.19037 3.49733C6.44583 3.31441 6.78788 3.28972 7.07062 3.44384L11.6357 5.93384C11.8407 6.04567 11.9896 6.23869 12.0449 6.46556C12.1003 6.69247 12.0571 6.93246 11.9266 7.12615L9.96752 10.0312C9.71121 10.4112 9.19578 10.5119 8.81573 10.2557C8.43575 9.99945 8.33524 9.48394 8.59121 9.10388L10.0405 6.95431L6.82097 5.19786L4.77029 7.24935C4.44615 7.57349 3.92075 7.57349 3.59662 7.24935C3.27248 6.92522 3.27248 6.39982 3.59662 6.07568L6.08662 3.58568L6.19037 3.49733Z" fill="#636AE8"/>
<path d="M2.78153 11.7765C2.94454 11.3887 3.37808 11.18 3.78904 11.3056C4.22728 11.4396 4.47402 11.9032 4.34021 12.3415L4.27861 12.5733C4.15434 13.1175 4.16902 13.6859 4.32319 14.2252C4.49939 14.8413 4.85018 15.3935 5.33313 15.8147C5.81608 16.2358 6.41069 16.5077 7.045 16.5985C7.67941 16.6892 8.32676 16.5951 8.90847 16.3261C9.32447 16.1337 9.81757 16.3147 10.01 16.7306C10.2023 17.1465 10.0213 17.6396 9.6055 17.8321C8.73292 18.2356 7.76163 18.3783 6.80995 18.2423C5.85833 18.1062 4.96663 17.6971 4.24213 17.0653C3.51768 16.4335 2.99152 15.6057 2.72722 14.6815C2.46299 13.7573 2.47142 12.7761 2.75235 11.8568L2.78153 11.7765Z" fill="#636AE8"/>
<path d="M5.55992 8.76515C6.38916 8.41747 7.2986 8.30039 8.19095 8.42801C9.14247 8.56413 10.0343 8.97315 10.7587 9.60495C11.4832 10.2367 12.0095 11.0645 12.2736 11.9887C12.5379 12.9131 12.5288 13.8941 12.2478 14.8135L12.2194 14.8937C12.0564 15.2814 11.6228 15.4901 11.2118 15.3646C10.7735 15.2307 10.5267 14.7664 10.6607 14.328L10.7223 14.097C10.8466 13.5527 10.8319 12.9844 10.6777 12.445C10.5015 11.8288 10.1508 11.2768 9.66778 10.8556C9.1848 10.4344 8.59027 10.1618 7.9559 10.071C7.32152 9.98027 6.67413 10.0752 6.09245 10.3441L6.01382 10.3758C5.61599 10.5131 5.17134 10.329 4.99091 9.93886C4.79869 9.52286 4.97942 9.02967 5.39537 8.83736L5.55992 8.76515Z" fill="#636AE8"/>
</svg>
