<svg width="20" height="20" viewBox="0 0 20 20" fill="none" xmlns="http://www.w3.org/2000/svg">
<g clip-path="url(#clip0_890_1557)">
<path d="M14.1495 3.36C14.1495 3.13987 14.062 2.92883 13.9063 2.77317C13.7506 2.61751 13.5396 2.53 13.3195 2.53L6.67945 2.53C6.45932 2.53 6.24828 2.61751 6.09262 2.77317C5.93696 2.92883 5.84945 3.13987 5.84945 3.36L5.84945 17.47L14.1495 17.47L14.1495 3.36ZM15.8095 18.3C15.8095 18.7584 15.4379 19.13 14.9795 19.13L5.01945 19.13C4.56106 19.13 4.18945 18.7584 4.18945 18.3L4.18945 3.36C4.18945 2.69961 4.45198 2.06646 4.91895 1.5995C5.38591 1.13253 6.01906 0.870003 6.67945 0.870003L13.3195 0.870003C13.9798 0.870003 14.613 1.13253 15.08 1.5995C15.5469 2.06646 15.8095 2.69961 15.8095 3.36L15.8095 18.3Z" fill="#636AE8"/>
<path d="M0.839844 16.66L0.839844 11.68C0.839844 11.0197 1.10237 10.3864 1.56934 9.91949C2.03631 9.45253 2.66945 9.19 3.32984 9.19L4.98984 9.19C5.44824 9.19 5.81984 9.56159 5.81984 10.02C5.81984 10.4784 5.44824 10.85 4.98984 10.85L3.32984 10.85C3.10971 10.85 2.89867 10.9375 2.74301 11.0932C2.58735 11.2488 2.49984 11.4599 2.49984 11.68L2.49984 16.66L2.50389 16.7418C2.52273 16.9319 2.60677 17.1106 2.74301 17.2468C2.89867 17.4025 3.10971 17.49 3.32984 17.49H4.98984C5.44824 17.49 5.81984 17.8616 5.81984 18.32C5.81984 18.7784 5.44824 19.15 4.98984 19.15H3.32984C2.66945 19.15 2.03631 18.8875 1.56934 18.4205C1.10237 17.9536 0.839844 17.3204 0.839844 16.66Z" fill="#636AE8"/>
<path d="M17.4997 16.655L17.4997 9.185C17.4997 8.96488 17.4122 8.75381 17.2565 8.59819C17.1009 8.44248 16.8898 8.355 16.6697 8.355H15.0097C14.5513 8.355 14.1797 7.98339 14.1797 7.525C14.1797 7.06661 14.5513 6.695 15.0097 6.695L16.6697 6.695C17.3301 6.695 17.9632 6.95753 18.4302 7.4245C18.8972 7.89145 19.1597 8.52457 19.1597 9.185L19.1597 16.655C19.1597 17.3154 18.8972 17.9486 18.4302 18.4155C17.9632 18.8825 17.3301 19.145 16.6697 19.145H15.0097C14.5513 19.145 14.1797 18.7734 14.1797 18.315C14.1797 17.8566 14.5513 17.485 15.0097 17.485H16.6697C16.8898 17.485 17.1009 17.3975 17.2565 17.2418C17.4122 17.0862 17.4997 16.8751 17.4997 16.655Z" fill="#636AE8"/>
<path d="M11.6598 4.17001C12.1182 4.17001 12.4898 4.54161 12.4898 5.00001C12.4898 5.4584 12.1182 5.83001 11.6598 5.83001L8.33977 5.83001C7.88137 5.83001 7.50977 5.4584 7.50977 5.00001C7.50977 4.54161 7.88137 4.17001 8.33977 4.17001L11.6598 4.17001Z" fill="#636AE8"/>
<path d="M11.6598 7.5C12.1182 7.5 12.4898 7.87161 12.4898 8.33C12.4898 8.78841 12.1182 9.16 11.6598 9.16L8.33977 9.16C7.88137 9.16 7.50977 8.78841 7.50977 8.33C7.50977 7.87161 7.88137 7.5 8.33977 7.5L11.6598 7.5Z" fill="#636AE8"/>
<path d="M11.6598 10.84C12.1182 10.84 12.4898 11.2116 12.4898 11.67C12.4898 12.1284 12.1182 12.5 11.6598 12.5L8.33977 12.5C7.88137 12.5 7.50977 12.1284 7.50977 11.67C7.50977 11.2116 7.88137 10.84 8.33977 10.84L11.6598 10.84Z" fill="#636AE8"/>
<path d="M11.6598 14.17C12.1182 14.17 12.4898 14.5416 12.4898 15C12.4898 15.4584 12.1182 15.83 11.6598 15.83L8.33977 15.83C7.88137 15.83 7.50977 15.4584 7.50977 15C7.50977 14.5416 7.88137 14.17 8.33977 14.17L11.6598 14.17Z" fill="#636AE8"/>
</g>
<defs>
<clipPath id="clip0_890_1557">
<rect width="20" height="20" fill="white"/>
</clipPath>
</defs>
</svg>
