<svg width="20" height="20" viewBox="0 0 20 20" fill="none" xmlns="http://www.w3.org/2000/svg">
<g clip-path="url(#clip0_890_1612)">
<path d="M7.50961 2.5L7.50961 4.16L12.4896 4.16V2.5L7.50961 2.5ZM14.1496 4.16C14.1496 5.07679 13.4064 5.82 12.4896 5.82L7.50961 5.82C6.59282 5.82 5.84961 5.07679 5.84961 4.16L5.84961 2.5C5.84961 1.5832 6.59282 0.839996 7.50961 0.839996L12.4896 0.839996C13.4064 0.839996 14.1496 1.5832 14.1496 2.5V4.16Z" fill="#636AE8"/>
<path d="M2.5293 16.64L2.5293 5.02C2.5293 4.35961 2.79183 3.72646 3.25879 3.25949C3.72576 2.79253 4.35891 2.53 5.0193 2.53L6.6793 2.53C7.13769 2.53 7.5093 2.90161 7.5093 3.36C7.5093 3.81839 7.13769 4.19 6.6793 4.19H5.0193C4.79916 4.19 4.58812 4.27751 4.43246 4.43316C4.2768 4.58882 4.1893 4.79987 4.1893 5.02L4.1893 16.64L4.19335 16.7218C4.21218 16.9119 4.29623 17.0906 4.43246 17.2268C4.58812 17.3825 4.79916 17.47 5.0193 17.47L14.9793 17.47C15.1994 17.47 15.4105 17.3825 15.5661 17.2268C15.7218 17.0712 15.8093 16.8601 15.8093 16.64L15.8093 5.02C15.8093 4.79987 15.7218 4.58882 15.5661 4.43316C15.4299 4.29693 15.2512 4.21288 15.0611 4.19405L14.9793 4.19L13.3193 4.19C12.8609 4.19 12.4893 3.81839 12.4893 3.36C12.4893 2.90161 12.8609 2.53 13.3193 2.53L14.9793 2.53L15.2257 2.54216C15.7956 2.59881 16.3313 2.85097 16.7398 3.25949C17.2068 3.72646 17.4693 4.35961 17.4693 5.02L17.4693 16.64C17.4693 17.3004 17.2068 17.9336 16.7398 18.4005C16.2729 18.8675 15.6397 19.13 14.9793 19.13L5.0193 19.13C4.35891 19.13 3.72576 18.8675 3.25879 18.4005C2.85027 17.992 2.59811 17.4563 2.54146 16.8864L2.5293 16.64Z" fill="#636AE8"/>
<path d="M13.3297 8.34C13.7881 8.34 14.1597 8.71159 14.1597 9.17C14.1597 9.62841 13.7881 10 13.3297 10L10.0097 10C9.55128 10 9.17969 9.62841 9.17969 9.17C9.17969 8.71159 9.55128 8.34 10.0097 8.34L13.3297 8.34Z" fill="#636AE8"/>
<path d="M13.3297 12.5C13.7881 12.5 14.1597 12.8716 14.1597 13.33C14.1597 13.7884 13.7881 14.16 13.3297 14.16L10.0097 14.16C9.55128 14.16 9.17969 13.7884 9.17969 13.33C9.17969 12.8716 9.55128 12.5 10.0097 12.5L13.3297 12.5Z" fill="#636AE8"/>
<path d="M6.67795 8.34L6.76305 8.34406C7.18158 8.38656 7.50795 8.74022 7.50795 9.17C7.50795 9.59977 7.18158 9.95343 6.76305 9.99593L6.67795 10H6.66984C6.21145 10 5.83984 9.62841 5.83984 9.17C5.83984 8.71159 6.21145 8.34 6.66984 8.34H6.67795Z" fill="#636AE8"/>
<path d="M6.67795 12.5L6.76305 12.5041C7.18158 12.5466 7.50795 12.9002 7.50795 13.33C7.50795 13.7598 7.18158 14.1134 6.76305 14.1559L6.67795 14.16H6.66984C6.21145 14.16 5.83984 13.7884 5.83984 13.33C5.83984 12.8716 6.21145 12.5 6.66984 12.5H6.67795Z" fill="#636AE8"/>
</g>
<defs>
<clipPath id="clip0_890_1612">
<rect width="20" height="20" fill="white"/>
</clipPath>
</defs>
</svg>
