<svg width="20" height="20" viewBox="0 0 20 20" fill="none" xmlns="http://www.w3.org/2000/svg">
<path d="M14.9794 17.49V15.83C14.9794 15.1696 14.7168 14.5364 14.2499 14.0695C13.8414 13.661 13.3057 13.4088 12.7358 13.3521L12.4894 13.34H7.50938C6.84899 13.34 6.21584 13.6025 5.74887 14.0695C5.2819 14.5364 5.01937 15.1696 5.01937 15.83L5.01937 17.49C5.01937 17.9484 4.64777 18.32 4.18937 18.32C3.73098 18.32 3.35937 17.9484 3.35937 17.49L3.35937 15.83C3.35937 14.7293 3.79692 13.6741 4.57519 12.8958C5.35347 12.1176 6.40873 11.68 7.50938 11.68H12.4894L12.6952 11.6849C13.7209 11.7358 14.6939 12.1662 15.4236 12.8958C16.2018 13.6741 16.6394 14.7293 16.6394 15.83V17.49C16.6394 17.9484 16.2678 18.32 15.8094 18.32C15.351 18.32 14.9794 17.9484 14.9794 17.49Z" fill="#636AE8"/>
<path d="M12.4896 5.82999C12.4896 4.45481 11.3748 3.33999 9.99961 3.33999C8.62438 3.33999 7.50961 4.45481 7.50961 5.82999C7.50961 7.20518 8.62438 8.31999 9.99961 8.31999C11.3748 8.31999 12.4896 7.20518 12.4896 5.82999ZM14.1496 5.82999C14.1496 8.12197 12.2916 9.97999 9.99961 9.97999C7.70763 9.97999 5.84961 8.12197 5.84961 5.82999C5.84961 3.53801 7.70763 1.67999 9.99961 1.67999C12.2916 1.67999 14.1496 3.53801 14.1496 5.82999Z" fill="#636AE8"/>
</svg>
