<svg width="30" height="25" viewBox="0 0 30 25" fill="none" xmlns="http://www.w3.org/2000/svg">
<path d="M18.9511 15.2522L20.501 13.6997L16.2041 13.6997C15.8859 13.6997 15.5808 13.5733 15.3559 13.3483C15.1309 13.1233 15.0045 12.8181 15.0045 12.5C15.0045 12.1818 15.1309 11.8766 15.3559 11.6516C15.5808 11.4266 15.8859 11.3002 16.2041 11.3002L20.501 11.3002L18.9511 9.7501C18.8366 9.63943 18.7452 9.50704 18.6823 9.36067C18.6194 9.21429 18.5864 9.05686 18.585 8.89756C18.5836 8.73825 18.6139 8.58027 18.6743 8.43282C18.7346 8.28538 18.8236 8.15142 18.9363 8.03877C19.0489 7.92612 19.1828 7.83704 19.3303 7.77671C19.4777 7.71639 19.6356 7.68603 19.7949 7.68742C19.9542 7.6888 20.1116 7.7219 20.258 7.78478C20.4043 7.84765 20.5367 7.93905 20.6474 8.05364L24.2461 11.6529C24.471 11.8779 24.5973 12.183 24.5973 12.5012C24.5973 12.8193 24.471 13.1244 24.2461 13.3494L20.6474 16.9487C20.5367 17.0633 20.4043 17.1547 20.258 17.2175C20.1116 17.2804 19.9542 17.3135 19.7949 17.3149C19.6356 17.3163 19.4777 17.2859 19.3303 17.2256C19.1828 17.1653 19.0489 17.0762 18.9363 16.9635C18.8236 16.8509 18.7346 16.7169 18.6743 16.5695C18.6139 16.422 18.5836 16.2641 18.585 16.1047C18.5864 15.9454 18.6194 15.788 18.6823 15.6416C18.7452 15.4953 18.8366 15.3629 18.9511 15.2522Z" fill="#5D6065"/>
<path d="M0.605021 5.29904C0.605021 4.02625 1.11056 2.8056 2.01042 1.9056C2.91028 1.00561 4.13076 0.499998 5.40336 0.499999L24.5967 0.500003C25.8693 0.500003 27.0898 1.00562 27.9896 1.90561C28.8895 2.8056 29.395 4.02626 29.395 5.29904L29.395 19.701C29.395 20.9737 28.8895 22.1944 27.9896 23.0944C27.0898 23.9944 25.8693 24.5 24.5967 24.5L5.40335 24.5C4.13075 24.5 2.91028 23.9944 2.01042 23.0944C1.11055 22.1944 0.60502 20.9737 0.60502 19.701L0.605021 5.29904ZM5.40336 2.89952C4.76706 2.89952 4.15682 3.15232 3.70689 3.60232C3.25696 4.05232 3.00419 4.66265 3.00419 5.29904L3.00419 19.701C3.00419 20.3373 3.25695 20.9477 3.70688 21.3977C4.15681 21.8477 4.76705 22.1005 5.40335 22.1005L10.2065 22.1005L10.2065 2.90192L5.40336 2.90192L5.40336 2.89952ZM12.6057 2.89952L12.6056 22.1005L24.5967 22.1005C25.233 22.1005 25.8432 21.8477 26.2932 21.3977C26.7431 20.9477 26.9959 20.3374 26.9959 19.701L26.9959 5.30144C26.9959 4.66505 26.7431 4.05472 26.2932 3.60473C25.8432 3.15473 25.233 2.90192 24.5967 2.90192L12.6057 2.90192L12.6057 2.89952Z" fill="#5D6065"/>
</svg>
