<svg width="16" height="16" viewBox="0 0 16 16" fill="none" xmlns="http://www.w3.org/2000/svg">
<path d="M8.6651 4.64988C8.6651 4.29449 8.8064 3.95376 9.05765 3.70246C9.30897 3.45117 9.64973 3.30988 10.0051 3.30988L11.3451 3.30988V1.96988L10.0051 1.96988C9.29429 1.96988 8.61284 2.25244 8.11027 2.75504C7.60764 3.25764 7.3251 3.9391 7.3251 4.64988L7.3251 6.65988C7.3251 7.02992 7.02514 7.32988 6.6551 7.32988L5.3151 7.32988V8.66988H6.6551C7.02514 8.66988 7.3251 8.96984 7.3251 9.33988L7.3251 14.0299L8.6651 14.0299L8.6651 9.33988C8.6651 8.96984 8.96506 8.66988 9.3351 8.66988H10.8223L11.1573 7.32988L9.3351 7.32988C8.96506 7.32988 8.6651 7.02992 8.6651 6.65988L8.6651 4.64988ZM10.0051 5.98988H12.0151C12.2214 5.98988 12.4162 6.08506 12.5431 6.24768C12.67 6.41025 12.7148 6.62205 12.6648 6.82216L11.9948 9.50216C11.9202 9.80044 11.6526 10.0099 11.3451 10.0099H10.0051V14.6999C10.0051 15.0699 9.70514 15.3699 9.3351 15.3699L6.6551 15.3699C6.28507 15.3699 5.9851 15.0699 5.9851 14.6999L5.9851 10.0099H4.6451C4.27507 10.0099 3.9751 9.70992 3.9751 9.33988L3.9751 6.65988L3.97837 6.59118C4.01276 6.25341 4.29825 5.98988 4.6451 5.98988L5.9851 5.98988L5.9851 4.64988C5.9851 3.58371 6.40893 2.56151 7.16282 1.80762C7.91671 1.05372 8.93893 0.629883 10.0051 0.629883L12.0151 0.629883L12.0838 0.633152C12.4216 0.667543 12.6851 0.953037 12.6851 1.29988V3.97988C12.6851 4.34991 12.3851 4.64988 12.0151 4.64988H10.0051V5.98988Z" fill="#2563EB"/>
</svg>
