<svg width="41" height="41" viewBox="0 0 41 41" fill="none" xmlns="http://www.w3.org/2000/svg">
<g filter="url(#filter0_dd_10_60197)">
<rect x="6" y="2" width="29" height="29" rx="4" fill="#3B5999"/>
</g>
<path d="M27.2796 16.908C27.2796 20.2986 24.7913 23.115 21.5374 23.6072V18.8767H23.1234L23.4241 16.908H21.5374V15.6501C21.5374 15.1033 21.8109 14.5837 22.6585 14.5837H23.5062V12.9158C23.5062 12.9158 22.7405 12.7791 21.9749 12.7791C20.4437 12.7791 19.4319 13.7361 19.4319 15.4314V16.908H17.7093V18.8767H19.4319V23.6072C16.178 23.115 13.7171 20.2986 13.7171 16.908C13.7171 13.1619 16.7523 10.1267 20.4984 10.1267C24.2444 10.1267 27.2796 13.1619 27.2796 16.908Z" fill="white"/>
<defs>
<filter id="filter0_dd_10_60197" x="0" y="0" width="41" height="41" filterUnits="userSpaceOnUse" color-interpolation-filters="sRGB">
<feFlood flood-opacity="0" result="BackgroundImageFix"/>
<feColorMatrix in="SourceAlpha" type="matrix" values="0 0 0 0 0 0 0 0 0 0 0 0 0 0 0 0 0 0 127 0" result="hardAlpha"/>
<feOffset dy="1"/>
<feGaussianBlur stdDeviation="1.5"/>
<feColorMatrix type="matrix" values="0 0 0 0 0 0 0 0 0 0 0 0 0 0 0 0 0 0 0.08 0"/>
<feBlend mode="normal" in2="BackgroundImageFix" result="effect1_dropShadow_10_60197"/>
<feColorMatrix in="SourceAlpha" type="matrix" values="0 0 0 0 0 0 0 0 0 0 0 0 0 0 0 0 0 0 127 0" result="hardAlpha"/>
<feOffset dy="4"/>
<feGaussianBlur stdDeviation="3"/>
<feColorMatrix type="matrix" values="0 0 0 0 0.196078 0 0 0 0 0.196078 0 0 0 0 0.364706 0 0 0 0.11 0"/>
<feBlend mode="normal" in2="effect1_dropShadow_10_60197" result="effect2_dropShadow_10_60197"/>
<feBlend mode="normal" in="SourceGraphic" in2="effect2_dropShadow_10_60197" result="shape"/>
</filter>
</defs>
</svg>
