<svg width="20" height="20" viewBox="0 0 20 20" fill="none" xmlns="http://www.w3.org/2000/svg">
<path d="M9.16992 9.98001L9.16992 1.68001C9.16992 1.22161 9.54151 0.850006 9.99992 0.850006C10.4583 0.850006 10.8299 1.22161 10.8299 1.68001L10.8299 9.98001C10.8299 10.4384 10.4583 10.81 9.99992 10.81C9.54151 10.81 9.16992 10.4384 9.16992 9.98001Z" fill="#636AE8"/>
<path d="M6.37321 2.92823C6.58652 2.55497 7.0456 2.41026 7.43017 2.58132L7.50555 2.61942L13.3156 5.93942L13.3869 5.98481C13.7295 6.22929 13.8376 6.6985 13.6244 7.07175C13.4111 7.44502 12.952 7.58973 12.5674 7.41867L12.492 7.38057L6.68203 4.06057L6.61071 4.01518C6.26813 3.77069 6.15993 3.30149 6.37321 2.92823Z" fill="#636AE8"/>
<path d="M12.492 2.61942C12.89 2.392 13.3969 2.53025 13.6244 2.92825C13.8518 3.32624 13.7135 3.83315 13.3155 4.06058L7.50552 7.38058C7.10751 7.60801 6.60061 7.46976 6.37318 7.07176C6.14575 6.67377 6.284 6.16685 6.682 5.93942L12.492 2.61942Z" fill="#636AE8"/>
<path d="M13.3195 14.17C13.3195 12.3364 11.8331 10.85 9.99953 10.85C8.16595 10.85 6.67953 12.3364 6.67953 14.17C6.67953 16.0036 8.16595 17.49 9.99953 17.49C11.8331 17.49 13.3195 16.0036 13.3195 14.17ZM14.9795 14.17C14.9795 16.9204 12.7499 19.15 9.99953 19.15C7.24915 19.15 5.01953 16.9204 5.01953 14.17C5.01953 11.4196 7.24915 9.19 9.99953 9.19C12.7499 9.19 14.9795 11.4196 14.9795 14.17Z" fill="#636AE8"/>
</svg>
