<svg width="16" height="16" viewBox="0 0 16 16" fill="none" xmlns="http://www.w3.org/2000/svg">
<path d="M14.0299 7.99988C14.0299 4.66961 11.3302 1.96988 7.99988 1.96988C4.66961 1.96988 1.96988 4.66961 1.96988 7.99988C1.96988 11.3302 4.66961 14.0299 7.99988 14.0299C11.3302 14.0299 14.0299 11.3302 14.0299 7.99988ZM15.3699 7.99988C15.3699 12.0702 12.0702 15.3699 7.99988 15.3699C3.92955 15.3699 0.629883 12.0702 0.629883 7.99988C0.629883 3.92955 3.92955 0.629883 7.99988 0.629883C12.0702 0.629883 15.3699 3.92955 15.3699 7.99988Z" fill="white"/>
<path d="M10.0073 7.78267C9.95932 5.78411 9.25039 3.8628 7.9999 2.31535C6.70419 3.91879 5.9899 5.92365 5.9899 7.99988L5.99252 8.2171C6.04048 10.2155 6.74962 12.1364 7.9999 13.6838C9.29541 12.0804 10.0099 10.0759 10.0099 7.99988L10.0073 7.78267ZM11.3466 8.24979C11.2846 10.8262 10.2668 13.2913 8.48538 15.1618C8.35895 15.2946 8.18328 15.3699 7.9999 15.3699C7.81652 15.3699 7.64085 15.2946 7.51442 15.1618C5.73303 13.2913 4.71514 10.8262 4.65317 8.24979L4.6499 7.99988C4.6499 5.33336 5.6755 2.76892 7.51442 0.837951L7.56413 0.790837C7.68494 0.687409 7.83937 0.629883 7.9999 0.629883C8.18328 0.629883 8.35895 0.705171 8.48538 0.837951C10.3243 2.76892 11.3499 5.33336 11.3499 7.99988L11.3466 8.24979Z" fill="white"/>
<path d="M14.6999 7.32983C15.0699 7.32983 15.3699 7.62979 15.3699 7.99983C15.3699 8.36987 15.0699 8.66983 14.6999 8.66983L1.29988 8.66983C0.929855 8.66983 0.629883 8.36987 0.629883 7.99983C0.629883 7.62979 0.929855 7.32983 1.29988 7.32983L14.6999 7.32983Z" fill="white"/>
</svg>
