<svg width="16" height="16" viewBox="0 0 16 16" fill="none" xmlns="http://www.w3.org/2000/svg">
<path d="M14.0299 4.64988C14.0299 3.16976 12.83 1.96988 11.3499 1.96988L4.64988 1.96988C3.16976 1.96988 1.96988 3.16976 1.96988 4.64988L1.96988 11.3499C1.96988 12.83 3.16976 14.0299 4.64988 14.0299H11.3499C12.83 14.0299 14.0299 12.83 14.0299 11.3499V4.64988ZM15.3699 11.3499C15.3699 13.5701 13.5701 15.3699 11.3499 15.3699H4.64988C2.4297 15.3699 0.629883 13.5701 0.629883 11.3499L0.629883 4.64988C0.629883 2.4297 2.4297 0.629883 4.64988 0.629883L11.3499 0.629883C13.5701 0.629883 15.3699 2.4297 15.3699 4.64988V11.3499Z" fill="#DB2777"/>
<path d="M6.48924 4.99388C7.11461 4.66942 7.82655 4.55032 8.52342 4.65365L8.65628 4.67655C9.31623 4.8017 9.92418 5.12269 10.4006 5.59911C10.9089 6.10734 11.2407 6.76532 11.3461 7.47626L11.3625 7.60718C11.4334 8.2619 11.31 8.9242 11.0058 9.51051C10.6814 10.1359 10.1676 10.6429 9.53827 10.9598C8.90893 11.2765 8.19572 11.387 7.50013 11.2752C6.80446 11.1632 6.16177 10.8344 5.66351 10.3362C5.16527 9.83794 4.83655 9.19528 4.7246 8.49962C4.61273 7.80403 4.72322 7.09081 5.03997 6.46147C5.35677 5.83214 5.86384 5.31839 6.48924 4.99388ZM8.32717 5.97926C7.90896 5.91724 7.4815 5.98868 7.10623 6.1834C6.73097 6.37812 6.42676 6.68647 6.23668 7.06408C6.04663 7.44169 5.98044 7.86962 6.04759 8.28696C6.11475 8.70437 6.31199 9.08982 6.61094 9.38878C6.90986 9.68773 7.29537 9.88498 7.71278 9.95218C8.13013 10.0193 8.55806 9.95312 8.93567 9.76304C9.31328 9.57296 9.62161 9.26878 9.81632 8.89351C9.9867 8.56521 10.0626 8.19718 10.0375 7.83029L10.0205 7.67257C9.95722 7.24605 9.75809 6.85142 9.45318 6.54653C9.18645 6.27976 8.85098 6.09397 8.48549 6.00936L8.32717 5.97926Z" fill="#DB2777"/>
<path d="M11.6766 3.65991L11.7452 3.66318C12.0831 3.69751 12.3466 3.98301 12.3466 4.32991C12.3466 4.67681 12.0831 4.96232 11.7452 4.99664L11.6766 4.99991H11.67C11.3 4.99991 11 4.69994 11 4.32991C11 3.95988 11.3 3.65991 11.67 3.65991H11.6766Z" fill="#DB2777"/>
</svg>
