<svg width="41" height="41" viewBox="0 0 41 41" fill="none" xmlns="http://www.w3.org/2000/svg">
<g filter="url(#filter0_dd_10_60205)">
<rect x="6" y="2" width="29" height="29" rx="4" fill="#E4405F"/>
</g>
<path d="M20.4984 13.7634C22.221 13.7634 23.6429 15.1853 23.6429 16.908C23.6429 18.658 22.221 20.0525 20.4984 20.0525C18.7484 20.0525 17.3538 18.658 17.3538 16.908C17.3538 15.1853 18.7484 13.7634 20.4984 13.7634ZM20.4984 18.9587C21.6194 18.9587 22.5218 18.0564 22.5218 16.908C22.5218 15.7869 21.6194 14.8845 20.4984 14.8845C19.3499 14.8845 18.4476 15.7869 18.4476 16.908C18.4476 18.0564 19.3773 18.9587 20.4984 18.9587ZM24.4905 13.6541C24.4905 14.0642 24.1624 14.3923 23.7523 14.3923C23.3421 14.3923 23.014 14.0642 23.014 13.6541C23.014 13.2439 23.3421 12.9158 23.7523 12.9158C24.1624 12.9158 24.4905 13.2439 24.4905 13.6541ZM26.5687 14.3923C26.6234 15.4041 26.6234 18.4392 26.5687 19.4509C26.514 20.4353 26.2952 21.283 25.5843 22.0212C24.8734 22.7322 23.9984 22.9509 23.014 23.0056C22.0023 23.0603 18.9671 23.0603 17.9554 23.0056C16.971 22.9509 16.1234 22.7322 15.3851 22.0212C14.6741 21.283 14.4554 20.4353 14.4007 19.4509C14.346 18.4392 14.346 15.4041 14.4007 14.3923C14.4554 13.408 14.6741 12.533 15.3851 11.822C16.1234 11.1111 16.971 10.8923 17.9554 10.8376C18.9671 10.783 22.0023 10.783 23.014 10.8376C23.9984 10.8923 24.8734 11.1111 25.5843 11.822C26.2952 12.533 26.514 13.408 26.5687 14.3923ZM25.2562 20.5173C25.5843 19.7244 25.5023 17.8103 25.5023 16.908C25.5023 16.033 25.5843 14.1189 25.2562 13.2986C25.0374 12.7791 24.6273 12.3416 24.1077 12.1501C23.2874 11.822 21.3734 11.9041 20.4984 11.9041C19.596 11.9041 17.6819 11.822 16.889 12.1501C16.3421 12.3689 15.9319 12.7791 15.7132 13.2986C15.3851 14.1189 15.4671 16.033 15.4671 16.908C15.4671 17.8103 15.3851 19.7244 15.7132 20.5173C15.9319 21.0642 16.3421 21.4744 16.889 21.6931C17.6819 22.0212 19.596 21.9392 20.4984 21.9392C21.3734 21.9392 23.2874 22.0212 24.1077 21.6931C24.6273 21.4744 25.0648 21.0642 25.2562 20.5173Z" fill="white"/>
<defs>
<filter id="filter0_dd_10_60205" x="0" y="0" width="41" height="41" filterUnits="userSpaceOnUse" color-interpolation-filters="sRGB">
<feFlood flood-opacity="0" result="BackgroundImageFix"/>
<feColorMatrix in="SourceAlpha" type="matrix" values="0 0 0 0 0 0 0 0 0 0 0 0 0 0 0 0 0 0 127 0" result="hardAlpha"/>
<feOffset dy="1"/>
<feGaussianBlur stdDeviation="1.5"/>
<feColorMatrix type="matrix" values="0 0 0 0 0 0 0 0 0 0 0 0 0 0 0 0 0 0 0.08 0"/>
<feBlend mode="normal" in2="BackgroundImageFix" result="effect1_dropShadow_10_60205"/>
<feColorMatrix in="SourceAlpha" type="matrix" values="0 0 0 0 0 0 0 0 0 0 0 0 0 0 0 0 0 0 127 0" result="hardAlpha"/>
<feOffset dy="4"/>
<feGaussianBlur stdDeviation="3"/>
<feColorMatrix type="matrix" values="0 0 0 0 0.196078 0 0 0 0 0.196078 0 0 0 0 0.364706 0 0 0 0.11 0"/>
<feBlend mode="normal" in2="effect1_dropShadow_10_60205" result="effect2_dropShadow_10_60205"/>
<feBlend mode="normal" in="SourceGraphic" in2="effect2_dropShadow_10_60205" result="shape"/>
</filter>
</defs>
</svg>
