<svg width="16" height="16" viewBox="0 0 16 16" fill="none" xmlns="http://www.w3.org/2000/svg">
<path d="M12.6841 6.42761C12.6267 5.26831 12.1412 4.16789 11.3166 3.34325C10.492 2.51861 9.39156 2.03321 8.23226 1.97577L7.99997 1.96988C6.75612 1.96988 5.56289 2.46371 4.68334 3.34325C3.80379 4.2228 3.30997 5.41601 3.30997 6.65988C3.30997 8.10661 4.12522 9.66624 5.18453 11.0581C6.20816 12.4029 7.38324 13.4914 7.99997 14.0266C8.61671 13.4914 9.79175 12.4029 10.8154 11.0581C11.8747 9.66624 12.69 8.10661 12.69 6.65988L12.6841 6.42761ZM14.03 6.65988C14.03 8.55846 12.9897 10.4139 11.8819 11.8694C10.8991 13.1608 9.79772 14.2214 9.10902 14.8366L8.84075 15.0722C8.82936 15.0821 8.81744 15.0919 8.80538 15.1009C8.6023 15.2537 8.36043 15.3448 8.10858 15.3653L7.99997 15.3699C7.74584 15.3699 7.49774 15.2975 7.28414 15.1625L7.19456 15.1009L7.15919 15.0722C6.51916 14.5195 5.24123 13.3451 4.11802 11.8694C3.01023 10.4139 1.96997 8.55846 1.96997 6.65988C1.96997 5.06063 2.60507 3.52667 3.73592 2.39583C4.86676 1.26498 6.40071 0.629883 7.99997 0.629883C9.59919 0.629883 11.1332 1.26498 12.2641 2.39583C13.3949 3.52667 14.03 5.06063 14.03 6.65988Z" fill="#383838"/>
<path d="M9.34007 6.66999C9.34007 5.92993 8.74015 5.32999 8.00007 5.32999C7.25999 5.32999 6.66007 5.92993 6.66007 6.66999C6.66007 7.41007 7.25999 8.00999 8.00007 8.00999C8.74015 8.00999 9.34007 7.41007 9.34007 6.66999ZM10.6801 6.66999C10.6801 8.15009 9.48017 9.34999 8.00007 9.34999C6.51994 9.34999 5.32007 8.15009 5.32007 6.66999C5.32007 5.18987 6.51994 3.98999 8.00007 3.98999C9.48017 3.98999 10.6801 5.18987 10.6801 6.66999Z" fill="#383838"/>
</svg>
