<svg width="16" height="16" viewBox="0 0 16 16" fill="none" xmlns="http://www.w3.org/2000/svg">
<g clip-path="url(#clip0_989_1599)">
<path d="M4.72352 0.636701C5.20891 0.633503 5.67902 0.806267 6.04716 1.12284C6.37069 1.40107 6.59656 1.77374 6.69358 2.18608L6.72694 2.36536L6.72761 2.37124L6.76038 2.59371C6.84332 3.10965 6.97672 3.61646 7.1595 4.10644L7.20526 4.24253C7.30033 4.56343 7.314 4.90368 7.24385 5.23248C7.16372 5.60828 6.97752 5.95313 6.70731 6.22636L6.7047 6.22963L6.22513 6.70858C7.01297 7.94466 8.06172 8.99261 9.29773 9.78053L9.77993 9.29893L9.88593 9.20212C10.1401 8.98437 10.445 8.83255 10.7738 8.7624C11.1489 8.6824 11.5394 8.71161 11.8985 8.84615C12.389 9.02919 12.8967 9.16359 13.4132 9.24661L13.635 9.27863L13.6409 9.2793C14.129 9.34818 14.5752 9.59413 14.8939 9.97027C15.209 10.3421 15.377 10.816 15.3689 11.303L15.3696 13.3104L15.3676 13.4151C15.3559 13.6592 15.2995 13.8993 15.2014 14.1237C15.0893 14.3801 14.9248 14.6104 14.7186 14.7996C14.5123 14.9888 14.2691 15.1333 14.0041 15.2229C13.7721 15.3014 13.5278 15.3362 13.2837 15.327L13.179 15.3204C13.175 15.3201 13.1706 15.3196 13.1666 15.3191C11.0009 15.0838 8.92052 14.3439 7.0927 13.1587C5.39328 12.0776 3.95214 10.6358 2.87186 8.93579C1.68434 7.10093 0.944838 5.01188 0.71399 2.83841L0.712677 2.82795C0.687572 2.5501 0.721152 2.26988 0.810168 2.00549C0.899231 1.74106 1.04212 1.49773 1.23022 1.29166C1.41836 1.08556 1.64759 0.920877 1.90284 0.80813C2.15804 0.695429 2.43389 0.636971 2.71287 0.636701L4.72352 0.636701ZM2.64482 1.98063C2.57569 1.98789 2.50779 2.00543 2.44395 2.03363C2.35888 2.07121 2.28288 2.12655 2.22018 2.19524C2.15752 2.26387 2.10985 2.34469 2.08016 2.43275C2.0516 2.51753 2.04016 2.60729 2.04679 2.69643L2.09128 3.06414C2.32413 4.77584 2.90676 6.42127 3.80292 7.8981L3.99921 8.21213L4.00248 8.21675L4.18961 8.50203C5.07889 9.81992 6.21316 10.9548 7.53108 11.8441L7.81636 12.0307L7.82159 12.0339L8.13435 12.2302C9.70637 13.1854 11.4699 13.7851 13.3013 13.9857C13.3937 13.9938 13.487 13.9833 13.5748 13.9536C13.6631 13.9237 13.7443 13.8753 13.813 13.8123C13.8817 13.7493 13.9366 13.6726 13.974 13.5872C14.0113 13.5017 14.0299 13.409 14.0296 13.3156L14.0296 11.303L14.0302 11.2867C14.0343 11.1224 13.9775 10.9619 13.8712 10.8365C13.7663 10.7128 13.62 10.6309 13.4597 10.6069C12.7665 10.5155 12.0859 10.3462 11.4307 10.1018L11.4287 10.1011C11.309 10.0562 11.1789 10.0464 11.0539 10.073C10.9286 10.0997 10.8132 10.1622 10.7221 10.2523L9.87414 11.1002C9.66087 11.3135 9.3309 11.3579 9.06873 11.2088C7.2866 10.1955 5.8108 8.71972 4.79745 6.93758C4.64848 6.67541 4.69349 6.34602 4.90672 6.13279L5.75404 5.28417C5.8441 5.1931 5.90659 5.07836 5.93332 4.9531C5.96003 4.82782 5.95025 4.69744 5.90518 4.57753L5.90453 4.57622C5.66077 3.92301 5.49171 3.24428 5.40006 2.55314L5.38894 2.49295C5.35657 2.35566 5.28137 2.23165 5.17368 2.13896C5.06583 2.04622 4.93166 1.99007 4.79091 1.97867L4.73006 1.9767L2.71417 1.9767L2.64482 1.98063Z" fill="#22C55E"/>
</g>
<defs>
<clipPath id="clip0_989_1599">
<rect width="16" height="16" fill="white"/>
</clipPath>
</defs>
</svg>
