<svg width="150" height="150" viewBox="0 0 150 150" fill="none" xmlns="http://www.w3.org/2000/svg">
<path d="M75.0013 50.9403C68.371 50.9403 63.001 56.3399 63.001 62.9406C63.001 69.5709 68.371 74.9409 75.0013 74.9409C81.6316 74.9409 87.0016 69.5709 87.0016 62.9406C87.0016 56.341 81.6316 50.9403 75.0013 50.9403Z" fill="#969696"/>
<path d="M148.14 63.7797L129.27 56.009C128.52 53.8794 127.711 51.9293 126.81 50.0687L134.67 31.2587C135.119 30.1183 134.88 28.8288 134.009 27.9582L122.009 16.0178C121.169 15.1483 119.849 14.9079 118.739 15.3584L99.9594 23.2183C98.0693 22.2879 96.0594 21.4478 93.9593 20.698L86.2495 1.91954C85.799 0.780234 84.6891 0.0598483 83.4899 0.0598483L66.5102 0C65.2805 0 64.2 0.749747 63.72 1.85969L56.0103 20.6992C53.9699 21.4196 51.9601 22.2596 50.0101 23.2194L31.2305 15.3595C30.1205 14.909 28.83 15.1495 27.9606 16.0189L15.9603 27.9594C15.0898 28.8288 14.8504 30.1194 15.3303 31.2599L23.1606 50.0699C22.2607 51.9295 21.4511 53.8796 20.7003 56.0101L1.86077 63.7809C0.720359 64.2597 0 65.3402 0 66.5699V83.4898C0 84.6901 0.720359 85.8 1.85969 86.2494L20.6992 94.019C21.4489 96.179 22.2596 98.1291 23.1595 99.9593L15.3292 118.769C14.8493 119.879 15.0887 121.17 15.9592 122.039L27.9595 134.039C28.829 134.88 30.1195 135.149 31.2294 134.669L50.009 126.839C51.959 127.769 53.9394 128.61 56.0092 129.329L63.7189 148.139C64.1999 149.279 65.2805 150 66.5102 150H83.4607C84.6904 150 85.8003 149.279 86.2509 148.14L93.9606 129.33C96.0608 128.61 98.0707 127.77 99.9608 126.84L118.74 134.671C119.85 135.15 121.17 134.881 122.01 134.041L134.011 122.04C134.88 121.17 135.121 119.88 134.671 118.77L126.811 99.9604C127.711 98.1301 128.521 96.1802 129.272 94.0201L148.14 86.2494C149.25 85.7999 150 84.69 150 83.4898V66.5699C150 65.3403 149.25 64.2597 148.14 63.7797L148.14 63.7797ZM102.468 100.821C102.131 99.891 101.739 98.8137 101.705 98.7071C98.0676 87.1561 87.1696 79.1385 75.0019 79.1385C62.723 79.1385 51.7629 87.2748 48.2231 98.9684C48.1893 99.0794 48.1567 99.1903 48.124 99.3024L47.6093 100.925C41.1966 94.1523 37.2303 85.0377 37.2303 74.9993C37.2303 54.1795 54.1808 37.2585 75.0018 37.2585C95.8228 37.2585 112.743 54.1784 112.743 74.9993C112.743 84.9875 108.821 94.0587 102.47 100.822L102.468 100.821Z" fill="#969696"/>
</svg>
