<svg width="16" height="16" viewBox="0 0 16 16" fill="none" xmlns="http://www.w3.org/2000/svg">
<path d="M13.3401 3.3299C13.3401 2.58984 12.7402 1.9899 12.0001 1.9899C11.26 1.9899 10.6601 2.58984 10.6601 3.3299C10.6601 4.06996 11.26 4.6699 12.0001 4.6699C12.7402 4.6699 13.3401 4.06996 13.3401 3.3299ZM14.6801 3.3299C14.6801 4.81003 13.4802 6.0099 12.0001 6.0099C10.52 6.0099 9.32007 4.81003 9.32007 3.3299C9.32007 1.84978 10.52 0.649902 12.0001 0.649902C13.4802 0.649902 14.6801 1.84978 14.6801 3.3299Z" fill="#1A1A1A"/>
<path d="M5.34007 7.99982C5.34007 7.25974 4.74013 6.65982 4.00007 6.65982C3.26001 6.65982 2.66007 7.25974 2.66007 7.99982C2.66007 8.73991 3.26001 9.33982 4.00007 9.33982C4.74013 9.33982 5.34007 8.73991 5.34007 7.99982ZM6.68007 7.99982C6.68007 9.47992 5.48019 10.6798 4.00007 10.6798C2.51994 10.6798 1.32007 9.47992 1.32007 7.99982C1.32007 6.5197 2.51994 5.31982 4.00007 5.31982C5.48019 5.31982 6.68007 6.5197 6.68007 7.99982Z" fill="#1A1A1A"/>
<path d="M13.3401 12.67C13.3401 11.9299 12.7402 11.33 12.0001 11.33C11.26 11.33 10.6601 11.9299 10.6601 12.67C10.6601 13.4101 11.26 14.01 12.0001 14.01C12.7402 14.01 13.3401 13.4101 13.3401 12.67ZM14.6801 12.67C14.6801 14.1501 13.4802 15.35 12.0001 15.35C10.52 15.35 9.32007 14.1501 9.32007 12.67C9.32007 11.1899 10.52 9.98999 12.0001 9.98999C13.4802 9.98999 14.6801 11.1899 14.6801 12.67Z" fill="#1A1A1A"/>
<path d="M5.12969 8.65891C5.30433 8.35935 5.67577 8.24579 5.98485 8.38609L6.04635 8.41744L10.6219 11.0844L10.6794 11.1217C10.9541 11.3214 11.0385 11.7006 10.8639 12.0004C10.6892 12.3002 10.3174 12.4139 10.0081 12.2732L9.94729 12.2418L5.37112 9.5756L5.3142 9.53762C5.03956 9.33789 4.95502 8.95867 5.12969 8.65891Z" fill="#1A1A1A"/>
<path d="M10.0081 3.72623C10.3172 3.58578 10.6885 3.69955 10.8633 3.99907C11.0381 4.29861 10.9544 4.67784 10.6801 4.8778L10.6225 4.91509L6.05292 7.58197L5.99207 7.61339C5.68307 7.75402 5.31182 7.64059 5.1369 7.34124C4.95039 7.02165 5.05809 6.61106 5.37768 6.42455L9.94728 3.75829L10.0081 3.72623Z" fill="#1A1A1A"/>
</svg>
