<svg width="20" height="20" viewBox="0 0 20 20" fill="none" xmlns="http://www.w3.org/2000/svg">
<path d="M1.67969 5.82999L1.67969 4.16999C1.67969 2.7986 2.7983 1.67999 4.16969 1.67999L5.82969 1.67999C6.28808 1.67999 6.65969 2.0516 6.65969 2.50999C6.65969 2.96839 6.28808 3.33999 5.82969 3.33999H4.16969C3.71508 3.33999 3.33969 3.71538 3.33969 4.16999V5.82999C3.33969 6.28838 2.96808 6.65999 2.50969 6.65999C2.0513 6.65999 1.67969 6.28838 1.67969 5.82999Z" fill="#636AE8"/>
<path d="M16.6598 5.82999V4.16999C16.6598 3.71538 16.2844 3.33999 15.8298 3.33999L14.1698 3.33999C13.7114 3.33999 13.3398 2.96839 13.3398 2.50999C13.3398 2.0516 13.7114 1.67999 14.1698 1.67999L15.8298 1.67999C17.2013 1.67999 18.3198 2.7986 18.3198 4.16999V5.82999C18.3198 6.28838 17.9483 6.65999 17.4898 6.65999C17.0314 6.65999 16.6598 6.28838 16.6598 5.82999Z" fill="#636AE8"/>
<path d="M16.6598 15.83V14.17C16.6598 13.7116 17.0314 13.34 17.4898 13.34C17.9483 13.34 18.3198 13.7116 18.3198 14.17V15.83C18.3198 17.2014 17.2013 18.32 15.8298 18.32H14.1698C13.7114 18.32 13.3398 17.9484 13.3398 17.49C13.3398 17.0316 13.7114 16.66 14.1698 16.66H15.8298C16.2844 16.66 16.6598 16.2846 16.6598 15.83Z" fill="#636AE8"/>
<path d="M1.67969 15.83L1.67969 14.17C1.67969 13.7116 2.0513 13.34 2.50969 13.34C2.96808 13.34 3.33969 13.7116 3.33969 14.17L3.33969 15.83C3.33969 16.2846 3.71508 16.66 4.16969 16.66H5.82969C6.28808 16.66 6.65969 17.0316 6.65969 17.49C6.65969 17.9484 6.28808 18.32 5.82969 18.32H4.16969C2.7983 18.32 1.67969 17.2014 1.67969 15.83Z" fill="#636AE8"/>
<path d="M6.67562 6.67498L6.67562 9.16498L10.8256 9.16498V6.67498L6.67562 6.67498ZM12.4856 9.16498C12.4856 10.0818 11.7424 10.825 10.8256 10.825L6.67562 10.825C5.75883 10.825 5.01562 10.0818 5.01562 9.16498L5.01562 6.67498C5.01562 5.75819 5.75883 5.01498 6.67562 5.01498L10.8256 5.01498C11.7424 5.01498 12.4856 5.75819 12.4856 6.67498V9.16498Z" fill="#636AE8"/>
<path d="M9.17562 10.835L9.17562 13.325L13.3256 13.325V10.835L9.17562 10.835ZM14.9856 13.325C14.9856 14.2418 14.2424 14.985 13.3256 14.985L9.17562 14.985C8.25883 14.985 7.51562 14.2418 7.51562 13.325L7.51562 10.835C7.51562 9.91817 8.25883 9.17499 9.17562 9.17499L13.3256 9.17499C14.2424 9.17499 14.9856 9.91817 14.9856 10.835V13.325Z" fill="#636AE8"/>
</svg>
