<svg width="77" height="81" viewBox="0 0 77 81" fill="none" xmlns="http://www.w3.org/2000/svg">
<mask id="mask0_1219_187" style="mask-type:luminance" maskUnits="userSpaceOnUse" x="0" y="0" width="77" height="81">
<path d="M38.4569 2L48.5251 9.34465L60.9892 9.32166L64.8168 21.1819L74.9138 28.4883L71.0402 40.3334L74.9138 52.1784L64.8168 59.4846L60.9892 71.345L48.5251 71.322L38.4569 78.6666L28.3886 71.322L15.9246 71.345L12.097 59.4846L2 52.1784L5.87358 40.3334L2 28.4883L12.097 21.1819L15.9246 9.32166L28.3886 9.34465L38.4569 2Z" fill="#555555" stroke="white" stroke-width="4" stroke-linecap="round" stroke-linejoin="round"/>
<path d="M25.041 40.3334L34.6243 49.9167L53.791 30.75" stroke="white" stroke-width="4" stroke-linecap="round" stroke-linejoin="round"/>
</mask>
<g mask="url(#mask0_1219_187)">
<path d="M-7.54297 -5.66699H84.457V86.333H-7.54297V-5.66699Z" fill="white"/>
</g>
</svg>
