<svg width="41" height="41" viewBox="0 0 41 41" fill="none" xmlns="http://www.w3.org/2000/svg">
<g filter="url(#filter0_dd_10_60201)">
<rect x="6" y="2" width="29" height="29" rx="4" fill="#1DA1F2"/>
</g>
<path d="M26.0491 14.0642C26.0491 14.2009 26.0491 14.3103 26.0491 14.447C26.0491 18.2478 23.178 22.5955 17.9007 22.5955C16.2601 22.5955 14.7562 22.1306 13.4984 21.3103C13.7171 21.3376 13.9359 21.365 14.1819 21.365C15.5218 21.365 16.7523 20.9001 17.7366 20.1345C16.4788 20.1072 15.4124 19.2869 15.0569 18.1384C15.2484 18.1658 15.4124 18.1931 15.6038 18.1931C15.8499 18.1931 16.1234 18.1384 16.3421 18.0837C15.0296 17.8103 14.0452 16.6619 14.0452 15.2673V15.24C14.428 15.4587 14.8929 15.5681 15.3577 15.5955C14.5648 15.0759 14.0726 14.2009 14.0726 13.2166C14.0726 12.6697 14.2093 12.1775 14.4554 11.7673C15.8773 13.49 18.0101 14.6384 20.389 14.7751C20.3343 14.5564 20.3069 14.3376 20.3069 14.1189C20.3069 12.533 21.5921 11.2478 23.178 11.2478C23.9984 11.2478 24.7366 11.5759 25.2835 12.1501C25.9124 12.0134 26.5413 11.7673 27.0882 11.4392C26.8694 12.1228 26.4319 12.6697 25.8304 13.0251C26.4046 12.9705 26.9788 12.8064 27.471 12.5876C27.0882 13.1619 26.596 13.6541 26.0491 14.0642Z" fill="white"/>
<defs>
<filter id="filter0_dd_10_60201" x="0" y="0" width="41" height="41" filterUnits="userSpaceOnUse" color-interpolation-filters="sRGB">
<feFlood flood-opacity="0" result="BackgroundImageFix"/>
<feColorMatrix in="SourceAlpha" type="matrix" values="0 0 0 0 0 0 0 0 0 0 0 0 0 0 0 0 0 0 127 0" result="hardAlpha"/>
<feOffset dy="1"/>
<feGaussianBlur stdDeviation="1.5"/>
<feColorMatrix type="matrix" values="0 0 0 0 0 0 0 0 0 0 0 0 0 0 0 0 0 0 0.08 0"/>
<feBlend mode="normal" in2="BackgroundImageFix" result="effect1_dropShadow_10_60201"/>
<feColorMatrix in="SourceAlpha" type="matrix" values="0 0 0 0 0 0 0 0 0 0 0 0 0 0 0 0 0 0 127 0" result="hardAlpha"/>
<feOffset dy="4"/>
<feGaussianBlur stdDeviation="3"/>
<feColorMatrix type="matrix" values="0 0 0 0 0.196078 0 0 0 0 0.196078 0 0 0 0 0.364706 0 0 0 0.11 0"/>
<feBlend mode="normal" in2="effect1_dropShadow_10_60201" result="effect2_dropShadow_10_60201"/>
<feBlend mode="normal" in="SourceGraphic" in2="effect2_dropShadow_10_60201" result="shape"/>
</filter>
</defs>
</svg>
