<svg width="20" height="20" viewBox="0 0 20 20" fill="none" xmlns="http://www.w3.org/2000/svg">
<g clip-path="url(#clip0_890_1578)">
<path d="M17.4692 17.5C17.9276 17.5 18.2992 17.8716 18.2992 18.33C18.2992 18.7884 17.9276 19.16 17.4692 19.16L2.52922 19.16C2.07083 19.16 1.69922 18.7884 1.69922 18.33C1.69922 17.8716 2.07083 17.5 2.52922 17.5L17.4692 17.5Z" fill="#636AE8"/>
<path d="M4.16992 14.985L4.16992 9.175C4.16992 8.71659 4.54153 8.345 4.99992 8.345C5.45831 8.345 5.82992 8.71659 5.82992 9.175L5.82992 14.985C5.82992 15.4434 5.45831 15.815 4.99992 15.815C4.54153 15.815 4.16992 15.4434 4.16992 14.985Z" fill="#636AE8"/>
<path d="M7.5 14.985L7.5 9.175C7.5 8.71659 7.87161 8.345 8.33 8.345C8.78841 8.345 9.16 8.71659 9.16 9.175L9.16 14.985C9.16 15.4434 8.78841 15.815 8.33 15.815C7.87161 15.815 7.5 15.4434 7.5 14.985Z" fill="#636AE8"/>
<path d="M10.8398 14.985L10.8398 9.175C10.8398 8.71659 11.2114 8.345 11.6698 8.345C12.1283 8.345 12.4998 8.71659 12.4998 9.175L12.4998 14.985C12.4998 15.4434 12.1283 15.815 11.6698 15.815C11.2114 15.815 10.8398 15.4434 10.8398 14.985Z" fill="#636AE8"/>
<path d="M14.1699 14.985L14.1699 9.175C14.1699 8.71659 14.5415 8.345 14.9999 8.345C15.4583 8.345 15.8299 8.71659 15.8299 9.175L15.8299 14.985C15.8299 15.4434 15.4583 15.815 14.9999 15.815C14.5415 15.815 14.1699 15.4434 14.1699 14.985Z" fill="#636AE8"/>
<path d="M9.66352 0.916372C9.91286 0.806036 10.2038 0.824323 10.4392 0.971492L17.0792 5.12149L17.1886 5.20335C17.4254 5.41249 17.5259 5.74229 17.4366 6.05362C17.3345 6.40954 17.0094 6.65504 16.6391 6.65504L3.35909 6.65504C2.98882 6.65504 2.66359 6.40954 2.56151 6.05362C2.45956 5.69785 2.60522 5.31775 2.91896 5.12149L9.55894 0.971492L9.66352 0.916372ZM6.25275 4.99504L13.7455 4.99504L9.99909 2.65337L6.25275 4.99504Z" fill="#636AE8"/>
</g>
<defs>
<clipPath id="clip0_890_1578">
<rect width="20" height="20" fill="white"/>
</clipPath>
</defs>
</svg>
