<svg width="41" height="41" viewBox="0 0 41 41" fill="none" xmlns="http://www.w3.org/2000/svg">
<g filter="url(#filter0_dd_1062_242371)">
<rect x="6" y="2" width="29" height="29" rx="4" fill="#0076CE"/>
</g>
<path d="M20.4819 10C16.9057 10 14 12.9138 14 16.5C14 20.0862 16.9057 23 20.4819 23C24.0582 23 26.9639 20.0862 26.9639 16.5C26.9639 12.9138 24.0582 10 20.4819 10ZM20.1636 10.6481C20.1835 11.4383 20.1733 12.2818 20.1733 13.0904H18.1911C18.6273 11.7702 19.3196 10.8288 20.1636 10.6481ZM20.7906 10.6577C21.6212 10.8539 22.3032 11.7857 22.7342 13.0904H20.7906V10.6577ZM18.7939 10.8657C18.3046 11.4058 17.8899 12.172 17.593 13.0904H15.7025C16.4489 12.0398 17.5317 11.2447 18.7939 10.8657ZM22.17 10.8657C23.4322 11.2447 24.515 12.0398 25.2614 13.0904H23.3708C23.074 12.172 22.6593 11.4058 22.17 10.8657ZM15.3166 13.7094H17.4194C17.2306 14.4668 17.1136 15.3022 17.0915 16.1856H14.627C14.6735 15.2924 14.917 14.453 15.3166 13.7094ZM18.0126 13.7094H20.1733V16.1856H17.6943C17.7162 15.3063 17.8243 14.4621 18.0126 13.7094ZM20.7906 13.7094H22.9127C23.101 14.4621 23.2091 15.3063 23.231 16.1856H20.7906V13.7094ZM23.5445 13.7094H25.6472C26.0468 14.453 26.2904 15.2924 26.3369 16.1856H23.8724C23.8503 15.3022 23.7333 14.4668 23.5445 13.7094ZM14.627 16.8047H17.0915C17.1126 17.6876 17.2269 18.524 17.4146 19.2809H15.3118C14.9144 18.5382 14.6727 17.6961 14.627 16.8047ZM17.6943 16.8047H20.1733V19.2809H18.0126C17.8249 18.5277 17.7155 17.6841 17.6943 16.8047ZM20.7906 16.8047H23.231C23.2098 17.6841 23.1004 18.5277 22.9127 19.2809H20.7906V16.8047ZM23.8724 16.8047H26.3369C26.2912 17.6961 26.0495 18.5382 25.6521 19.2809H23.5493C23.737 18.524 23.8513 17.6876 23.8724 16.8047ZM15.6928 19.8999H17.5882C17.8845 20.8209 18.2992 21.5878 18.7891 22.1295C17.5245 21.7486 16.4386 20.9546 15.6928 19.8999ZM18.1911 19.8999H20.1733V22.3471C19.3241 22.1711 18.6288 21.2273 18.1911 19.8999ZM20.7906 19.8999H22.7342C22.3032 21.2069 21.6221 22.141 20.7906 22.3374V19.8999ZM23.3757 19.8999H25.2711C24.5253 20.9546 23.4394 21.7486 22.1748 22.1295C22.6647 21.5878 23.0794 20.8209 23.3757 19.8999Z" fill="white"/>
<defs>
<filter id="filter0_dd_1062_242371" x="0" y="0" width="41" height="41" filterUnits="userSpaceOnUse" color-interpolation-filters="sRGB">
<feFlood flood-opacity="0" result="BackgroundImageFix"/>
<feColorMatrix in="SourceAlpha" type="matrix" values="0 0 0 0 0 0 0 0 0 0 0 0 0 0 0 0 0 0 127 0" result="hardAlpha"/>
<feOffset dy="1"/>
<feGaussianBlur stdDeviation="1.5"/>
<feColorMatrix type="matrix" values="0 0 0 0 0 0 0 0 0 0 0 0 0 0 0 0 0 0 0.08 0"/>
<feBlend mode="normal" in2="BackgroundImageFix" result="effect1_dropShadow_1062_242371"/>
<feColorMatrix in="SourceAlpha" type="matrix" values="0 0 0 0 0 0 0 0 0 0 0 0 0 0 0 0 0 0 127 0" result="hardAlpha"/>
<feOffset dy="4"/>
<feGaussianBlur stdDeviation="3"/>
<feColorMatrix type="matrix" values="0 0 0 0 0.196078 0 0 0 0 0.196078 0 0 0 0 0.364706 0 0 0 0.11 0"/>
<feBlend mode="normal" in2="effect1_dropShadow_1062_242371" result="effect2_dropShadow_1062_242371"/>
<feBlend mode="normal" in="SourceGraphic" in2="effect2_dropShadow_1062_242371" result="shape"/>
</filter>
</defs>
</svg>
