<svg width="41" height="41" viewBox="0 0 41 41" fill="none" xmlns="http://www.w3.org/2000/svg">
<g filter="url(#filter0_dd_942_150847)">
<rect x="6" y="2" width="29" height="29" rx="4" fill="#54CC61"/>
</g>
<path fill-rule="evenodd" clip-rule="evenodd" d="M22.483 16.6279C22.8779 16.8176 23.273 17.0072 23.6679 17.1969C23.8379 17.2784 23.9216 17.468 23.8674 17.6487C23.592 18.5667 22.657 19.0983 21.731 18.8215C19.8349 18.2546 18.3773 16.9609 17.5894 15.1454C17.2046 14.2588 17.6215 13.2673 18.5004 12.885C18.6733 12.8097 18.8715 12.8703 18.9729 13.0294C19.2078 13.399 19.443 13.7688 19.6782 14.1384C19.7885 14.3118 19.7778 14.5261 19.6506 14.6873C19.4841 14.8988 19.3176 15.1102 19.1511 15.3215C19.5873 16.2266 20.4204 16.966 21.3708 17.2918C21.5608 17.1013 21.751 16.9109 21.9412 16.7205C22.0865 16.5751 22.2977 16.539 22.483 16.6279Z" fill="white"/>
<path fill-rule="evenodd" clip-rule="evenodd" d="M20.6562 21.1401C23.5533 21.1401 25.9019 18.7916 25.9019 15.8945C25.9019 12.9975 23.5533 10.6489 20.6562 10.6489C17.7592 10.6489 15.4106 12.9975 15.4106 15.8945C15.4106 16.9887 15.7074 17.8863 16.2771 18.7245C16.479 19.0217 16.4912 19.3137 16.494 19.384C16.4983 19.4944 16.4871 19.582 16.4809 19.6242C16.4678 19.7125 16.448 19.7829 16.4395 19.8124C16.4196 19.8807 16.3962 19.9441 16.3806 19.985C16.3463 20.0749 16.301 20.1826 16.2545 20.2899C16.2096 20.3934 16.1576 20.5104 16.1021 20.6334C16.3908 20.5537 16.6775 20.4764 16.9111 20.4175C17.0493 20.3826 17.1843 20.3502 17.2953 20.3276C17.3474 20.3169 17.4189 20.3033 17.4926 20.2942C17.5266 20.2901 17.5929 20.2827 17.6729 20.2826C17.7125 20.2825 17.7822 20.2839 17.8671 20.2964C17.9315 20.3058 18.1163 20.3359 18.3194 20.4535C18.9349 20.8095 19.2704 20.9591 19.5483 21.0369C19.8144 21.1113 20.0985 21.1401 20.6562 21.1401ZM15.4036 22.1341C16.1914 21.9078 17.6281 21.5027 17.6913 21.5393C18.9727 22.2805 19.4723 22.3945 20.6562 22.3945C24.2461 22.3945 27.1562 19.4844 27.1562 15.8945C27.1562 12.3047 24.2461 9.39453 20.6562 9.39453C17.0664 9.39453 14.1562 12.3047 14.1562 15.8945C14.1562 17.2472 14.5326 18.3893 15.2396 19.4296C15.2763 19.4837 14.2703 21.5963 14.2703 21.5963C14.2071 21.8454 14.2875 21.9849 14.3843 22.1094C14.4778 22.2297 14.6302 22.307 14.8975 22.2805C14.8975 22.2805 15.1023 22.2206 15.4011 22.1347C15.4019 22.1345 15.4027 22.1343 15.4036 22.1341Z" fill="white"/>
<defs>
<filter id="filter0_dd_942_150847" x="0" y="0" width="41" height="41" filterUnits="userSpaceOnUse" color-interpolation-filters="sRGB">
<feFlood flood-opacity="0" result="BackgroundImageFix"/>
<feColorMatrix in="SourceAlpha" type="matrix" values="0 0 0 0 0 0 0 0 0 0 0 0 0 0 0 0 0 0 127 0" result="hardAlpha"/>
<feOffset dy="1"/>
<feGaussianBlur stdDeviation="1.5"/>
<feColorMatrix type="matrix" values="0 0 0 0 0 0 0 0 0 0 0 0 0 0 0 0 0 0 0.08 0"/>
<feBlend mode="normal" in2="BackgroundImageFix" result="effect1_dropShadow_942_150847"/>
<feColorMatrix in="SourceAlpha" type="matrix" values="0 0 0 0 0 0 0 0 0 0 0 0 0 0 0 0 0 0 127 0" result="hardAlpha"/>
<feOffset dy="4"/>
<feGaussianBlur stdDeviation="3"/>
<feColorMatrix type="matrix" values="0 0 0 0 0.196078 0 0 0 0 0.196078 0 0 0 0 0.364706 0 0 0 0.11 0"/>
<feBlend mode="normal" in2="effect1_dropShadow_942_150847" result="effect2_dropShadow_942_150847"/>
<feBlend mode="normal" in="SourceGraphic" in2="effect2_dropShadow_942_150847" result="shape"/>
</filter>
</defs>
</svg>
