<svg width="41" height="41" viewBox="0 0 41 41" fill="none" xmlns="http://www.w3.org/2000/svg">
<g filter="url(#filter0_dd_10_60209)">
<rect x="6" y="2" width="29" height="29" rx="4" fill="#CD201F"/>
</g>
<path d="M27.6365 13.3259C27.9646 14.4744 27.9646 16.9353 27.9646 16.9353C27.9646 16.9353 27.9646 19.3689 27.6365 20.5447C27.4725 21.2009 26.9529 21.6931 26.324 21.8572C25.1482 22.158 20.4998 22.158 20.4998 22.158C20.4998 22.158 15.824 22.158 14.6482 21.8572C14.0193 21.6931 13.4998 21.2009 13.3357 20.5447C13.0076 19.3689 13.0076 16.9353 13.0076 16.9353C13.0076 16.9353 13.0076 14.4744 13.3357 13.3259C13.4998 12.6697 14.0193 12.1501 14.6482 11.9861C15.824 11.658 20.4998 11.658 20.4998 11.658C20.4998 11.658 25.1482 11.658 26.324 11.9861C26.9529 12.1501 27.4725 12.6697 27.6365 13.3259ZM18.9685 19.1501L22.8514 16.9353L18.9685 14.7205V19.1501Z" fill="white"/>
<defs>
<filter id="filter0_dd_10_60209" x="0" y="0" width="41" height="41" filterUnits="userSpaceOnUse" color-interpolation-filters="sRGB">
<feFlood flood-opacity="0" result="BackgroundImageFix"/>
<feColorMatrix in="SourceAlpha" type="matrix" values="0 0 0 0 0 0 0 0 0 0 0 0 0 0 0 0 0 0 127 0" result="hardAlpha"/>
<feOffset dy="1"/>
<feGaussianBlur stdDeviation="1.5"/>
<feColorMatrix type="matrix" values="0 0 0 0 0 0 0 0 0 0 0 0 0 0 0 0 0 0 0.08 0"/>
<feBlend mode="normal" in2="BackgroundImageFix" result="effect1_dropShadow_10_60209"/>
<feColorMatrix in="SourceAlpha" type="matrix" values="0 0 0 0 0 0 0 0 0 0 0 0 0 0 0 0 0 0 127 0" result="hardAlpha"/>
<feOffset dy="4"/>
<feGaussianBlur stdDeviation="3"/>
<feColorMatrix type="matrix" values="0 0 0 0 0.196078 0 0 0 0 0.196078 0 0 0 0 0.364706 0 0 0 0.11 0"/>
<feBlend mode="normal" in2="effect1_dropShadow_10_60209" result="effect2_dropShadow_10_60209"/>
<feBlend mode="normal" in="SourceGraphic" in2="effect2_dropShadow_10_60209" result="shape"/>
</filter>
</defs>
</svg>
